# xmcd
#
# Track frame offsets:
#	150
#	13983
#	25819
#	37605
#	47735
#	61310
#	75052
#	87215
#	98168
#	109420
#	120370
#
# Disc length: 1786 seconds
#
# Revision: 0
# Processed by: cddbd v1.5.1PL0 Copyright (c) Steve Scherf et al.
# Submitted via: audiograbber 1.83.01
#
DISCID=7506f80b
DTITLE=Tanya Tucker - What's Your Mama's Name
DYEAR=1900
DGENRE=
TTITLE0=What's Your Mama's Name
TTITLE1=Horseshoe Bend
TTITLE2=The Chokin' Kind
TTITLE3=California Cotton Fields
TTITLE4=Teddy Bear Song
TTITLE5=Blood Red And Going Down
TTITLE6=Song Man
TTITLE7=The Missing Piece Of Puzzle
TTITLE8=Rainy Girl
TTITLE9=Pass Me By
TTITLE10=Teach Me The Words To Your Song
EXTD=
EXTT0=
EXTT1=
EXTT2=
EXTT3=
EXTT4=
EXTT5=
EXTT6=
EXTT7=
EXTT8=
EXTT9=
EXTT10=
PLAYORDER=
